<svg width="320" height="320" viewBox="0 0 320 320" fill="none" xmlns="http://www.w3.org/2000/svg">
  <rect width="320" height="320" rx="160" fill="url(#bg)"/>
  <circle cx="160" cy="122" r="60" fill="#F0CCAE"/>
  <path d="M88 258C103 208 134 186 160 186C186 186 217 208 232 258" fill="#2B4A8B"/>
  <path d="M99 112C102 68 131 38 173 42C204 45 230 75 226 126C213 102 195 90 164 90C137 90 118 98 99 112Z" fill="#152341"/>
  <circle cx="140" cy="123" r="6" fill="#201514"/>
  <circle cx="181" cy="123" r="6" fill="#201514"/>
  <path d="M140 156C148 163 171 163 180 156" stroke="#C26463" stroke-width="8" stroke-linecap="round"/>
  <defs>
    <linearGradient id="bg" x1="32" y1="30" x2="286" y2="296" gradientUnits="userSpaceOnUse">
      <stop stop-color="#0289A7"/>
      <stop offset="1" stop-color="#74D2C3"/>
    </linearGradient>
  </defs>
</svg>
